#!OML:ASF Y:\EmotionMaleHayes\Project 1\Capture day 1\Session 1\Male1.ASF
:FULLY-SPECIFIED
:DEGREES
33
root -8.18252 16.2194 -0.00262503 238.926 80.5209 238.373
lowerback 16.6837 -0.527872 2.74508
upperback 4.39544 0.154092 2.1062
thorax -4.65849 0.171626 0.630845
lowerneck -22.0007 0.679828 1.25442
upperneck 22.6237 0.342001 1.15846
head 10.9576 0.467451 0.276118
rclavicle -3.67752e-015 -5.96354e-015
rhumerus -29.7547 15.4008 -91.0956
rradius 73.5514
rwrist -4.74799
rhand -32.189 -22.5153
rfingers 7.12502
rthumb -5.43118 -52.4257
lclavicle -3.67752e-015 -5.96354e-015
lhumerus -58.142 -17.3631 97.745
lradius 66.7594
lwrist 15.0768
lhand -43.313 -40.8214
lfingers 7.12502
lthumb -16.1598 -11.475
rfemur -10.4614 -1.65707 31.265
rtibia 39.6705
rfoot -27.0036 -4.24825
rtoes 2.03157
lfemur -20.7693 3.61068 -6.39237
ltibia 76.4878
lfoot 166.502 -7.24255
ltoes -10.3761
34
root -7.6561 16.3364 -0.054616 241.065 79.873 240.305
lowerback 16.0305 -0.0949137 3.7047
upperback 4.65365 0.86485 2.313
thorax -4.01738 0.532627 0.167476
lowerneck -22.1422 0.101557 0.810422
upperneck 22.5248 -0.425013 1.55102
head 10.9496 0.130584 0.37234
rclavicle 6.75868e-015 5.04913e-014
rhumerus -27.2149 15.1576 -90.8257
rradius 75.2845
rwrist -5.85181
rhand -32.4135 -22.2934
rfingers 7.12502
rthumb -5.64799 -52.1981
lclavicle 6.75868e-015 5.04913e-014
lhumerus -60.0727 -18.2246 98.2982
lradius 66.6629
lwrist 15.7753
lhand -43.0917 -40.4134
lfingers 7.12502
lthumb -15.9467 -11.0499
rfemur -6.89283 -2.63548 31.4389
rtibia 36.5839
rfoot -26.3136 -2.96939
rtoes 0.39931
lfemur -25.1026 3.36003 -6.52312
ltibia 78.4753
lfoot 166.272 -9.2537
ltoes -13.9234
35
root -7.12319 16.453 -0.10155 244.418 79.307 243.637
lowerback 16.1611 0.451959 4.62622
upperback 4.54503 1.75567 2.47664
thorax -4.15816 0.965923 -0.351429
lowerneck -22.2737 -0.451227 0.580099
upperneck 22.8102 -1.17871 1.77341
head 11.0878 -0.195003 0.37499
rclavicle -2.47487e-014 -4.05521e-014
rhumerus -25.341 14.9579 -90.6544
rradius 77.0325
rwrist -6.75561
rhand -32.2009 -22.0713
rfingers 7.12502
rthumb -5.44274 -51.9814
lclavicle -2.47487e-014 -4.05521e-014
lhumerus -62.8041 -19.1735 99.0393
lradius 66.8207
lwrist 16.7189
lhand -42.9987 -40.4899
lfingers 7.12502
lthumb -15.8571 -11.1192
rfemur -3.3254 -3.40309 31.5865
rtibia 33.8409
rfoot -25.4061 -1.46345
rtoes -1.74164
lfemur -28.728 3.33623 -6.37284
ltibia 82.0601
lfoot 161.107 -38.5739
ltoes -15.965
36
root -6.58246 16.5727 -0.133745 248.537 78.9239 247.892
lowerback 16.3544 1.1004 5.20172
upperback 4.45632 2.72697 2.58891
thorax -4.29677 1.43735 -0.748191
lowerneck -22.2861 -0.91541 0.517605
upperneck 23.1299 -1.85004 1.94355
head 11.218 -0.472524 0.342827
rclavicle 1.88845e-015 2.42517e-014
rhumerus -23.4786 15.2305 -90.4332
rradius 78.4795
rwrist -7.79859
rhand -32.0362 -22.2469
rfingers 7.12502
rthumb -5.28368 -52.161
lclavicle 1.88845e-015 2.42517e-014
lhumerus -65.6607 -20.0336 99.6943
lradius 67.1044
lwrist 17.5066
lhand -43.1392 -40.5963
lfingers 7.12502
lthumb -15.9924 -11.2365
rfemur 0.334549 -3.77981 31.5888
rtibia 31.2392
rfoot -24.2549 0.348644
rtoes -3.18879
lfemur -31.494 3.62398 -5.95745
ltibia 86.473
lfoot 145.277 -66.4303
ltoes -14.3968
37
root -6.03025 16.6883 -0.16521 253.193 78.6202 252.725
lowerback 16.4587 1.8445 5.57561
upperback 4.34699 3.78608 2.72255
thorax -4.40248 1.95054 -1.02513
lowerneck -22.1616 -1.3995 0.435852
upperneck 23.5085 -2.53972 2.11357
head 11.3473 -0.756851 0.310935
rclavicle -2.28602e-015 4.96962e-015
rhumerus -21.7083 15.7284 -89.998
rradius 79.781
rwrist -9.00798
rhand -31.9085 -21.9105
rfingers 7.12502
rthumb -5.1604 -51.8277
lclavicle -2.28602e-015 4.96962e-015
lhumerus -68.6094 -20.7324 100.349
lradius 67.511
lwrist 18.3058
lhand -42.9962 -40.5887
lfingers 7.12502
lthumb -15.8547 -11.2178
rfemur 4.05879 -3.92276 31.4197
rtibia 28.5267
rfoot -22.6641 2.25357
rtoes -5.38804
lfemur -33.5767 4.2015 -5.43374
ltibia 88.856
lfoot 42.693 -76.9342
ltoes -10.8993
38
root -5.46974 16.7906 -0.205541 258.419 78.3083 258.049
lowerback 16.4651 2.57617 6.18754
upperback 4.13569 4.84712 2.67155
thorax -4.51631 2.45531 -1.62555
lowerneck -22.026 -1.89342 0.309793
upperneck 24.0458 -3.29138 2.50807
head 11.5446 -1.03574 0.35947
rclavicle 5.64548e-014 -3.93594e-014
rhumerus -20.2698 16.1525 -89.6968
rradius 81.1958
rwrist -10.1225
rhand -31.8848 -22.3254
rfingers 7.12502
rthumb -5.13746 -52.2431
lclavicle 5.64548e-014 -3.93594e-014
lhumerus -71.744 -21.4129 100.785
lradius 67.9592
lwrist 18.9685
lhand -42.9841 -40.4215
lfingers 7.12502
lthumb -15.8431 -11.0497
rfemur 7.55852 -3.87866 31.1313
rtibia 25.9012
rfoot -20.7691 4.14687
rtoes -7.20009
lfemur -35.2562 4.92981 -4.93161
ltibia 87.504
lfoot 2.67741 -51.8948
ltoes -10.0626
39
root -4.90957 16.8771 -0.254879 263.675 78.0683 263.158
lowerback 15.9813 3.31563 6.69379
upperback 3.99613 5.84987 2.58017
thorax -4.27461 2.94491 -2.15224
lowerneck -22.013 -2.36797 0.0413935
upperneck 24.5855 -4.00027 2.99123
head 11.778 -1.2933 0.470254
rclavicle -2.29596e-014 1.98785e-015
rhumerus -18.8642 16.834 -89.0728
rradius 82.7453
rwrist -11.2286
rhand -32.0974 -23.943
rfingers 7.12502
rthumb -5.34273 -53.8556
lclavicle -2.29596e-014 1.98785e-015
lhumerus -74.6554 -21.9669 101.049
lradius 68.355
lwrist 19.2875
lhand -43.175 -39.9262
lfingers 7.12502
lthumb -16.0269 -10.5691
rfemur 10.5522 -3.75639 30.5604
rtibia 23.5674
rfoot -18.49 6.06211
rtoes -6.50444
lfemur -36.8643 5.62188 -4.61228
ltibia 82.7937
lfoot -6.05712 -23.5573
ltoes -6.54514
40
root -4.34547 16.9534 -0.312241 269.662 77.8009 268.914
lowerback 15.4288 4.09336 7.30246
upperback 3.81168 6.89819 2.33763
thorax -3.98459 3.45705 -2.87317
lowerneck -22.1164 -2.84326 -0.111989
upperneck 25.1935 -4.74994 3.43483
head 12.067 -1.55624 0.539068
rclavicle -2.05742e-014 -3.97569e-015
rhumerus -17.6438 17.4151 -88.4034
rradius 84.3749
rwrist -11.89
rhand -31.7413 -24.8478
rfingers 7.12502
rthumb -4.99894 -54.7688
lclavicle -2.05742e-014 -3.97569e-015
lhumerus -77.6116 -22.5278 101.025
lradius 68.831
lwrist 19.4047
lhand -42.9242 -39.1743
lfingers 7.12502
lthumb -15.7853 -9.7979
rfemur 13.2621 -3.57845 29.7369
rtibia 21.5654
rfoot -15.9401 8.05756
rtoes -2.48823
lfemur -38.1269 6.4936 -4.2873
ltibia 76.9652
lfoot -12.4108 4.77521
ltoes -6.53862
41
root -3.7716 17.0281 -0.36637 275.959 77.2489 275.249
lowerback 15.284 4.86244 8.04675
upperback 3.58639 7.99772 2.09141
thorax -3.90029 3.98564 -3.69829
lowerneck -22.2856 -3.32403 -0.293838
upperneck 25.8548 -5.52049 3.92168
head 12.4032 -1.81756 0.623902
rclavicle 7.95139e-015 -1.03368e-014
rhumerus -16.6788 18.4221 -87.9351
rradius 86.0733
rwrist -14.1197
rhand -31.9267 -23.238
rfingers 7.12502
rthumb -5.17793 -53.1547
lclavicle 7.95139e-015 -1.03368e-014
lhumerus -80.6329 -22.8627 100.661
lradius 69.426
lwrist 19.1877
lhand -42.2399 -38.5958
lfingers 7.12502
lthumb -15.1263 -9.16851
rfemur 16.2048 -3.27716 28.9987
rtibia 19.7846
rfoot -13.6942 9.63974
rtoes 4.53413
lfemur -38.4478 7.57871 -3.5741
ltibia 71.2077
lfoot -12.3796 6.85773
ltoes -7.54612
42
root -3.19344 17.0967 -0.413849 281.312 76.6578 280.774
lowerback 15.2764 5.54282 8.66471
upperback 3.376 8.97527 1.83088
thorax -3.8688 4.4533 -4.45206
lowerneck -22.3029 -3.74344 -0.553043
upperneck 26.3033 -6.20042 4.49557
head 12.639 -2.04001 0.771063
rclavicle 1.94809e-014 -3.18055e-014
rhumerus -15.5337 19.3188 -87.3416
rradius 87.6335
rwrist -15.5099
rhand -31.3538 -23.7118
rfingers 7.12502
rthumb -4.62481 -53.6413
lclavicle 1.94809e-014 -3.18055e-014
lhumerus -83.5593 -22.9805 99.8206
lradius 70.3329
lwrist 18.6595
lhand -41.462 -38.0901
lfingers 7.12502
lthumb -14.3768 -8.60792
rfemur 19.1897 -2.84552 28.2706
rtibia 18.367
rfoot -12.8914 9.78303
rtoes 8.74292
lfemur -38.0824 8.50711 -2.7772
ltibia 64.8295
lfoot -11.6061 8.08578
ltoes -7.59634
43
root -2.61058 17.151 -0.453271 285.198 76.3252 284.618
lowerback 14.935 6.09631 8.99366
upperback 3.17313 9.69575 1.46113
thorax -3.68452 4.80486 -5.07345
lowerneck -22.3733 -4.05475 -0.688329
upperneck 26.654 -6.74044 4.94908
head 12.8402 -2.20658 0.874676
rclavicle -1.88845e-014 -7.15625e-014
rhumerus -14.3948 20.2951 -86.8222
rradius 89.0752
rwrist -17.046
rhand -31.1208 -24.3161
rfingers 7.12502
rthumb -4.39982 -54.2504
lclavicle -1.88845e-014 -7.15625e-014
lhumerus -86.2926 -23.0639 98.571
lradius 71.4617
lwrist 18.1731
lhand -40.7005 -37.2136
lfingers 7.12502
lthumb -13.643 -7.68074
rfemur 21.7706 -2.20968 27.5693
rtibia 17.4224
rfoot -13.6165 7.80519
rtoes 9.3991
lfemur -37.5736 9.0204 -2.21821
ltibia 58.0263
lfoot -10.4953 8.80017
ltoes -5.75302
44
root -2.02517 17.1925 -0.492629 289.998 75.9001 289.28
lowerback 14.3388 6.72167 9.18911
upperback 3.02084 10.4609 1.08303
thorax -3.30588 5.19504 -5.58023
lowerneck -22.552 -4.32082 -0.794197
upperneck 26.9638 -7.20887 5.31866
head 13.0445 -2.34977 0.951421
rclavicle -1.66979e-014 -2.14687e-014
rhumerus -13.3879 21.3662 -86.3973
rradius 90.4971
rwrist -18.7512
rhand -31.0003 -23.4288
rfingers 7.12502
rthumb -4.28346 -53.3655
lclavicle -1.66979e-014 -2.14687e-014
lhumerus -88.5557 -23.0223 97.0564
lradius 72.3815
lwrist 17.8497
lhand -39.9519 -36.1616
lfingers 7.12502
lthumb -12.9214 -6.58166
rfemur 23.8117 -1.16855 26.9849
rtibia 17.2723
rfoot -14.9997 4.83647
rtoes 7.31545
lfemur -36.5697 9.75166 -1.60557
ltibia 50.6528
lfoot -9.52408 9.05978
ltoes -4.69438
45
root -1.43674 17.2186 -0.531735 294.865 75.1443 294.002
lowerback 13.61 7.38383 9.57304
upperback 2.85371 11.2923 0.737713
thorax -2.81545 5.6266 -6.11387
lowerneck -22.47 -4.57367 -0.938649
upperneck 27.0715 -7.67213 5.82631
head 13.1262 -2.48604 1.09202
rclavicle -1.09928e-013 7.95139e-015
rhumerus -12.8976 21.9814 -86.3469
rradius 91.9837
rwrist -19.3847
rhand -30.6673 -22.3212
rfingers 7.12502
rthumb -3.9619 -52.2641
lclavicle -1.09928e-013 7.95139e-015
lhumerus -90.4003 -22.9791 95.3031
lradius 73.046
lwrist 17.4824
lhand -39.2495 -35.3389
lfingers 7.12502
lthumb -12.2442 -5.71732
rfemur 25.5087 0.106142 26.6937
rtibia 17.8142
rfoot -16.2505 2.07263
rtoes 2.79265
lfemur -35.0929 10.6973 -0.686402
ltibia 42.7996
lfoot -8.78381 8.99917
ltoes -6.50319
46
root -0.851437 17.2378 -0.56129 298.55 74.2 297.654
lowerback 13.1196 8.01332 10.1575
upperback 2.61549 12.1388 0.400944
thorax -2.46684 6.05649 -6.76311
lowerneck -22.1304 -4.80143 -0.978572
upperneck 27.0261 -8.11368 6.31047
head 13.0891 -2.61599 1.21357
rclavicle 3.8763e-014 -5.56597e-014
rhumerus -13.0508 22.0682 -86.7656
rradius 93.4893
rwrist -18.8671
rhand -30.0896 -21.6537
rfingers 7.12502
rthumb -3.40403 -51.6063
lclavicle 3.8763e-014 -5.56597e-014
lhumerus -92.0194 -23.2555 93.5101
lradius 73.5664
lwrist 17.0192
lhand -38.8492 -34.725
lfingers 7.12502
lthumb -11.8583 -5.08077
rfemur 27.1612 1.5016 26.7658
rtibia 18.7728
rfoot -16.6846 -0.0719374
rtoes 2.97833
lfemur -33.1663 11.5583 0.529596
ltibia 34.7076
lfoot -8.75259 8.63126
ltoes -5.63922
47
root -0.269107 17.2508 -0.586332 301.462 73.3114 300.658
lowerback 12.8371 8.57156 10.6373
upperback 2.37244 12.9037 0.123909
thorax -2.26338 6.43847 -7.30969
lowerneck -21.8013 -5 -1.0349
upperneck 27.0445 -8.44506 6.57799
head 13.0646 -2.72969 1.27418
rclavicle -5.40694e-014 -1.66979e-014
rhumerus -13.3736 22.3045 -87.2233
rradius 94.7915
rwrist -17.9509
rhand -29.6784 -21.5127
rfingers 7.12502
rthumb -3.00691 -51.4712
lclavicle -5.40694e-014 -1.66979e-014
lhumerus -93.328 -23.6088 91.8266
lradius 73.9302
lwrist 16.4991
lhand -38.7399 -34.2697
lfingers 7.12502
lthumb -11.7528 -4.61942
rfemur 28.6997 3.05077 26.9677
rtibia 20.1988
rfoot -16.7173 -1.43107
rtoes 6.42182
lfemur -30.9948 12.1396 1.73039
ltibia 26.8518
lfoot -8.78096 8.12701
ltoes -4.69323
